<svg width="549" height="549" xmlns="http://www.w3.org/2000/svg" xmlns:xlink="http://www.w3.org/1999/xlink" xml:space="preserve" overflow="hidden"><defs><clipPath id="clip0"><rect x="207" y="200" width="549" height="549"/></clipPath></defs><g clip-path="url(#clip0)" transform="translate(-207 -200)"><path d="M620.819 628.099C620.293 609.942 600.152 596.499 582.923 598.666L565.337 536.32 553.135 536.383C553.135 536.383 559.21 607.819 559.732 609.005 561.914 613.96 568.515 626.543 579.295 626.543L607.541 629.026 620.833 629.026C620.833 628.716 620.828 628.407 620.819 628.099Z" fill="#737373"/><path d="M485.61 608.507C486.416 619.243 495.377 627.705 506.319 627.705L534.856 629.027 547.061 629.027C547.061 628.716 547.056 628.408 547.048 628.099 546.516 609.765 529.798 596.838 512.461 599.336L494.448 599.336 485.61 608.507Z" fill="#737373"/><path d="M525.172 433.294 519.984 438.194C499.214 456.337 482.931 477.063 470.013 499.743 468.97 501.575 467.949 503.42 466.949 505.278 460.227 517.761 454.471 530.805 449.502 544.309 464.534 542.019 472.246 526.913 472.922 511.214 476.87 512.228 481.925 512.586 486.189 512.586 513.509 512.586 536.819 487.904 536.819 460.584 536.819 451.45 534.684 435.88 525.172 433.294Z" fill="#505050"/><path d="M474.752 594.022C474.752 577.215 463.162 558.947 445.01 557.274 440.469 571.226 436.682 585.621 433.452 600.347L419.739 600.347C402.029 600.347 384.544 596.382 368.566 588.743L345.825 577.872C342.807 576.429 340.071 580.295 342.437 582.661L349.508 589.732C370.547 610.771 398.862 623.086 428.484 624.366L458.445 624.452C468.042 619.947 474.752 603.813 474.752 594.022Z" fill="#505050"/><path d="M564.883 321.01C563.595 320.855 562.284 320.786 560.956 320.786L556.563 320.786C546.271 320.786 537.085 327.243 533.599 336.926L533.599 336.926C532.253 340.667 530.148 343.978 527.496 346.712 522.445 351.92 515.406 355.035 507.834 355.035L498.056 355.035 497.332 355.035C494.424 355.436 488.362 357.151 486.704 359.782 484.915 362.62 483.787 365.729 485.521 370.464 489.246 376.398 494.372 381.221 500.347 384.583 500.089 384.918 499.95 385.269 499.95 385.631 499.95 387.999 505.839 389.92 513.104 389.92L520.72 389.92C529.598 389.923 536.055 397.053 535.979 405.932L535.979 422.806C548.981 418.523 558.821 405.473 559.961 390.664 560.304 386.203 560.12 376.963 557.444 371.334 562.061 369.743 565.226 368.191 569.111 365.387 579.617 357.801 577.7 344.566 579.748 331.189 574.634 326.772 566.059 321.152 564.883 321.01Z" fill="#737373"/><path d="M566.481 450.824C566.481 460.695 572.314 478.16 583.651 475.195L595.454 423.152 595.454 421.992C579.405 418.456 566.481 436.358 566.481 450.824Z" fill="#737373"/><path d="M555.31 542.629C555.31 547.629 559.961 553.037 567.624 552.999 568.255 552.996 569.607 552.313 570.231 551.675L570.339 533.874C569.721 533.327 568.635 532.605 567.968 532.602 560.457 532.564 555.311 537.629 555.31 542.629Z" fill="#505050"/><path d="M607.553 626.249C606.265 612.372 595.701 601.927 582.929 599.546 578.858 598.549 574.554 598.276 570.232 598.893L570.232 551.733C570.232 551.733 570.232 551.694 570.232 551.638L570.232 551.675C569.632 551.767 569.017 551.823 568.387 551.823 562.598 551.823 557.905 547.77 557.905 542.77 557.905 537.77 562.599 533.716 568.388 533.716 569.056 533.716 569.706 533.776 570.339 533.879L583.651 475.253C576.249 469.844 571.436 461.102 571.436 451.232 571.436 436.765 581.768 424.716 595.455 422.049L595.455 405.074 591.453 400.347 592.329 355.321C592.329 344.922 587.069 337.519 579.729 331.18 577.686 344.532 574.016 354.187 563.541 361.774 559.642 364.598 555.314 366.868 550.673 368.468 553.349 374.096 554.851 380.392 554.851 387.04 554.851 401.892 547.373 414.995 535.979 422.799L535.979 423.147 525.173 433.353C529.455 440.636 531.935 449.105 531.976 458.155 532.098 485.267 510.01 507.638 482.899 507.847 478.497 507.88 474.227 507.339 470.159 506.293 469.483 521.993 461.489 535.787 449.503 544.368 447.93 548.645 446.433 552.967 445.012 557.333 457.822 566.272 466.211 581.111 466.211 597.918 466.211 607.71 463.354 616.829 458.445 624.51L481.1 624.363C484.674 627.276 489.232 629.026 494.204 629.026L534.835 629.026C534.835 628.716 534.831 628.407 534.822 628.099 534.361 612.161 521.666 600.315 506.966 599.129 506.96 599.129 506.959 599.12 506.966 599.119 524.472 595.683 537.792 580.588 538.513 562.251 541.2 564.672 542.991 567.929 543.316 571.94L546.503 611.27C547.966 621.311 556.601 629.026 567.048 629.026L607.68 629.026C607.68 628.13 607.641 627.205 607.553 626.249Z" fill="#D2D2D2"/><path d="M498.849 599.658C498.854 599.349 499.104 599.104 499.413 599.099 520.558 598.804 538.005 581.757 538.03 560.549 538.043 550.129 533.987 540.396 526.6 533.082 526.378 532.862 526.37 532.508 526.587 532.282L526.587 532.282C526.808 532.052 527.179 532.045 527.406 532.27 535.011 539.801 539.187 549.822 539.174 560.55 539.148 582.381 521.193 599.93 499.429 600.242 499.107 600.247 498.844 599.981 498.849 599.658L498.849 599.658Z" fill="#E6E6E6"/><path d="M505.794 606.565C505.471 606.552 505.2 606.817 505.2 607.141 505.2 607.448 505.444 607.695 505.751 607.708 517.146 608.198 526.28 617.547 526.422 629.027L527.566 629.027C527.423 616.931 517.8 607.078 505.794 606.565Z" fill="#737373"/><path d="M505.809 612.708C505.48 612.684 505.201 612.953 505.201 613.283 505.201 613.584 505.436 613.826 505.737 613.849 513.65 614.439 519.923 620.997 520.063 629.026L521.207 629.026C521.067 620.391 514.319 613.336 505.809 612.708Z" fill="#737373"/><path d="M577.529 606.565C577.205 606.552 576.934 606.817 576.934 607.141 576.934 607.448 577.179 607.695 577.486 607.708 588.88 608.198 598.014 617.547 598.157 629.027L599.301 629.027C599.157 616.931 589.534 607.078 577.529 606.565Z" fill="#737373"/><path d="M577.542 612.708C577.214 612.684 576.934 612.953 576.934 613.283 576.934 613.584 577.17 613.826 577.47 613.849 585.384 614.439 591.657 620.997 591.797 629.026L592.941 629.026C592.801 620.391 586.053 613.336 577.542 612.708Z" fill="#737373"/><path d="M564.378 442.024C568.06 442.024 571.046 438.567 571.046 434.303 571.046 430.04 568.061 426.583 564.378 426.583 560.696 426.583 557.71 430.04 557.71 434.303 557.71 438.567 560.696 442.024 564.378 442.024Z" fill="#505050"/><path d="M539.303 469.342C537.373 471.255 537.135 474.144 538.77 475.795 540.406 477.447 543.296 477.236 545.226 475.323 547.156 473.412 547.394 470.522 545.759 468.87 544.123 467.219 541.233 467.43 539.303 469.342Z" fill="#505050"/><path d="M563.676 472.695C565.51 471.267 565.645 468.372 563.975 466.229 562.307 464.085 559.466 463.505 557.631 464.932 555.797 466.359 555.663 469.254 557.332 471.398 559.001 473.541 561.841 474.122 563.676 472.695Z" fill="#505050"/><path d="M562.767 485.967C560.163 488.57 560.495 493.126 563.51 496.141 566.525 499.156 571.08 499.489 573.684 496.885 576.288 494.281 575.955 489.726 572.941 486.711 569.926 483.696 565.371 483.363 562.767 485.967Z" fill="#505050"/><path d="M535.729 411.661 595.547 411.661 595.547 423.152 535.729 423.152Z" fill="#A09D79"/><path d="M511.884 373.296C511.884 374.539 510.877 375.546 509.635 375.546 508.392 375.546 507.385 374.539 507.385 373.296 507.385 372.054 508.392 371.047 509.635 371.047 510.877 371.047 511.884 372.054 511.884 373.296Z" fill="#2F2F2F"/><path d="M508.529 366.003C508.529 367.245 507.522 368.252 506.28 368.252 505.038 368.252 504.031 367.245 504.031 366.003 504.031 364.761 505.038 363.754 506.28 363.754 507.522 363.754 508.529 364.761 508.529 366.003Z" fill="#2F2F2F"/><path d="M502.81 373.296C502.81 374.539 501.803 375.546 500.561 375.546 499.319 375.546 498.312 374.539 498.312 373.296 498.312 372.054 499.319 371.047 500.561 371.047 501.803 371.047 502.81 372.054 502.81 373.296Z" fill="#2F2F2F"/><path d="M482.71 365.179C480.596 360.405 484.092 355.035 489.314 355.035L497.332 355.035C497.546 355.954 497.663 356.91 497.663 357.894 497.663 364.695 492.266 370.232 485.521 370.464 484.469 368.788 483.526 367.025 482.71 365.179L482.71 365.179Z" fill="#2F2F2F"/><path d="M546.845 352.604C546.845 356.71 543.516 360.039 539.41 360.039 535.304 360.039 531.976 356.71 531.976 352.604 531.976 348.498 535.304 345.17 539.41 345.17 543.516 345.17 546.845 348.498 546.845 352.604Z" fill="#FFFFFF"/><path d="M531.976 352.604C531.976 353.019 532.018 353.424 532.084 353.821 533.089 354.58 534.337 355.035 535.693 355.035 539.009 355.035 541.698 352.346 541.698 349.03 541.698 347.59 541.19 346.27 540.345 345.235 540.038 345.197 539.728 345.17 539.41 345.17 535.304 345.17 531.976 348.498 531.976 352.604Z" fill="#2F2F2F"/><path d="M562.474 345.343C562.474 336.802 563.348 328.378 564.824 321 582.068 322.81 595.454 337.687 595.454 355.411L595.454 405.417C593.934 405.961 592.373 406.248 590.782 406.248 575.148 406.248 562.474 378.98 562.474 345.343Z" fill="#2F2F2F"/><path d="M501.643 384.228C505.519 384.59 509.453 384.662 513.344 384.521 517.238 384.366 521.118 383.969 524.887 383.192 526.767 382.793 528.626 382.321 530.417 381.7 532.204 381.074 533.931 380.325 535.536 379.418 538.749 377.607 541.352 375.007 542.714 371.86L542.718 371.851C543.165 370.817 544.365 370.343 545.398 370.789 546.431 371.237 546.906 372.436 546.459 373.469 546.442 373.51 546.42 373.555 546.4 373.594 545.377 375.576 543.988 377.343 542.379 378.799 540.767 380.253 538.967 381.44 537.078 382.341 533.301 384.164 529.301 385.132 525.318 385.692 521.328 386.247 517.328 386.39 513.355 386.289 509.377 386.174 505.433 385.845 501.501 385.218 501.228 385.174 501.043 384.918 501.086 384.645 501.127 384.384 501.365 384.203 501.624 384.227L501.643 384.228Z" fill="#2F2F2F"/></g></svg>